<svg xmlns="http://www.w3.org/2000/svg" version="1.1" xmlns:xlink="http://www.w3.org/1999/xlink" xmlns:svgjs="http://svgjs.dev/svgjs" width="2000" height="1500" viewBox="0 0 2000 1500"><rect width="2000" height="1500" fill="#000000"></rect><g transform="matrix(0.75,0,0,0.75,250,0)"><svg viewBox="0 0 280 280" data-background-color="#ffffff" preserveAspectRatio="xMidYMid meet" height="2000" width="2000" xmlns="http://www.w3.org/2000/svg" xmlns:xlink="http://www.w3.org/1999/xlink"><g id="tight-bounds" transform="matrix(1,0,0,1,0,0)"><svg viewBox="0 0 280 280" height="280" width="280"><g><svg viewBox="0 0 280 280" height="280" width="280"><g><svg viewBox="0 0 280 280" height="280" width="280"><g id="textblocktransform"><svg viewBox="0 0 280 280" height="280" width="280" id="textblock"><g><svg viewBox="0 0 280 280" height="280" width="280"><g transform="matrix(1,0,0,1,57.50420886156945,57.50420886156945)"><svg viewBox="0 0 164.9915822768611 164.9915822768611" height="164.9915822768611" width="164.9915822768611"><g id="icon-0"><circle r="82" cx="82.49579113843055" cy="82.49579113843055" fill="#ffffff" data-fill-palette-color="accent"></circle><svg xmlns="http://www.w3.org/2000/svg" xmlns:xlink="http://www.w3.org/1999/xlink" version="1.1" x="24.74873734152917" y="24.748737341529164" viewBox="2.635999999999997 11.36 84.727 67.278" enable-background="new 0 0 90 90" xml:space="preserve" height="115.49410759380275" width="115.49410759380275" class="icon-xg-0" data-fill-palette-color="quaternary" id="xg-0"><path d="M65.488 65.37c-0.571 0.471-1.272 0.724-1.988 0.741-0.424 0.009-0.85-0.063-1.255-0.223-0.492-0.195-0.905-0.517-1.24-0.899-3.28 4.264-7.92 7.411-13.282 8.8 2.99-2.082 5.463-5.671 7.121-10.209h5.453c-0.021-0.096-0.063-0.182-0.074-0.279l-0.285-2.165H55.63c0.841-2.991 1.343-6.308 1.438-9.836h1.574l-0.322-2.444h-1.252c-0.045-1.637-0.187-3.225-0.396-4.757-0.779 0.217-1.588 0.431-2.39 0.645 0.174 1.336 0.302 2.7 0.344 4.112h-8.61L45.52 51.3h9.105c-0.104 3.541-0.639 6.884-1.537 9.836H42.795v-5.401l-1.252 0.875c-0.363 0.257-0.772 0.399-1.192 0.486v4.04H30.058c-0.439-1.446-0.79-2.989-1.047-4.6-0.267 0.108-0.542 0.217-0.804 0.329-0.524 0.223-0.992 0.445-1.49 0.668 0.219 1.238 0.477 2.451 0.798 3.603h-7.807v-0.002c-0.703 0.429-1.374 0.857-1.996 1.292-0.491 0.346-0.938 0.686-1.361 1.023 4.805 9.025 14.303 15.189 25.221 15.189 10.239 0 19.208-5.433 24.25-13.549L65.488 65.37zM21.114 63.58h7.188c1.661 4.538 4.13 8.127 7.121 10.209C29.482 72.252 24.412 68.564 21.114 63.58zM40.351 73.266c-3.883-0.645-7.27-4.322-9.421-9.686h9.421V73.266zM42.795 63.58h9.421c-2.149 5.361-5.54 9.041-9.421 9.686V63.58z" fill="#000000" data-fill-palette-color="quaternary"></path><path d="M87.363 24.459c-3.995-2.627-12.348-0.773-21.615 2.803L49.466 11.36l-5.485 0.188L57.07 30.955c-5.385 2.476-10.719 5.232-15.396 7.779l-6.756-5.102-2.806 0.327 6.977 8.789 0.601 11.208 2.317-1.617 1.677-8.297c5.19-1.188 11.015-2.66 16.687-4.372l3.053 23.206 4.232-3.495 1.654-22.695C78.628 33.219 86.111 29.072 87.363 24.459z" fill="#000000" data-fill-palette-color="quaternary"></path><path d="M48.527 24.071l-1.348-1.999c-1.819-0.362-3.688-0.56-5.61-0.56-14.262 0-26.082 10.519-28.192 24.199 1.755-1.324 3.46-2.488 5.021-3.501 0.37-1.097 0.789-2.173 1.308-3.194h3.933c1.418-0.817 2.874-1.633 4.406-2.444h-6.933c3.296-4.984 8.368-8.671 14.31-10.209-1.592 1.11-3.032 2.657-4.287 4.538 0.197-0.063 0.393-0.13 0.604-0.153l2.806-0.327c0.017-0.001 0.037 0 0.052-0.001 1.697-1.917 3.647-3.184 5.752-3.532v6.794l1.615 1.221c0.282-0.151 0.549-0.284 0.829-0.435v-7.58c2.373 0.393 4.56 1.933 6.396 4.285l3.166-1.505L48.527 24.071z" fill="#000000" data-fill-palette-color="quaternary"></path><path d="M35.919 43.951l-4.397-5.538c-2.987 1.531-6.322 3.345-9.807 5.517-3.892 2.446-7.978 5.27-11.725 8.869-1.86 1.813-3.648 3.828-5.098 6.258-0.717 1.217-1.339 2.549-1.767 3.991-0.115 0.353-0.192 0.733-0.28 1.101-0.047 0.183-0.069 0.375-0.104 0.563l-0.102 0.681-0.003 0.832 0.023 1.226c0.107 1.477 0.501 3.049 1.285 4.42 0.766 1.383 1.916 2.446 3.06 3.128 2.327 1.363 4.509 1.586 6.388 1.697 3.773 0.115 6.669-0.5 8.695-0.902 0.631-0.134 1.162-0.256 1.612-0.361-5.88-0.309-9.543-1.719-11.51-2.787-0.562-0.285-1.083-0.605-1.528-0.977-0.205-0.159-0.317-0.263-0.317-0.263l0.038-0.003c-0.121-0.115-0.262-0.223-0.364-0.346-0.886-1.059-0.909-2.021-0.595-3.401 0.054-0.142 0.101-0.271 0.14-0.405l0.239-0.799 0.008-0.023c0.022-0.125-0.022 0.141-0.016 0.106l0.013-0.028 0.022-0.063 0.044-0.121c0.033-0.079 0.051-0.159 0.092-0.242 0.079-0.163 0.133-0.326 0.228-0.491 0.332-0.663 0.786-1.338 1.348-2.008 1.127-1.343 2.652-2.629 4.323-3.804 3.372-2.351 7.309-4.276 11.085-5.885 3.284-1.394 6.455-2.523 9.317-3.473L35.919 43.951z" fill="#000000" data-fill-palette-color="quaternary"></path></svg></g></svg></g><g id="text-0"><path d="M31.165 97.229l-1.135 3.135-24.027-8.695-3.354 9.27-2.649-0.959 7.857-21.712 2.649 0.959-3.369 9.308z" fill="#ffffff" data-fill-palette-color="primary"></path><path d="M52.464 33.026l2.135 1.859-1.412 1.604c-1.338 1.516-1.966 2.973-1.886 4.371 0.08 1.398 0.662 2.673 1.744 3.825v0l7.658 8.153-2.378 2.233-13.415-14.282 2.319-2.178 2.337 2.488c-0.761-2.408-0.059-4.814 2.104-7.216v0z" fill="#ffffff" data-fill-palette-color="primary"></path><path d="M106.555 5.758c2.407-0.673 4.368-0.558 5.882 0.344 1.519 0.894 2.63 2.596 3.332 5.107v0l3.325 11.895-3.064 0.856-0.9-3.22c-0.177 1.249-0.685 2.317-1.524 3.203-0.837 0.893-1.916 1.525-3.237 1.894v0c-1.21 0.338-2.395 0.403-3.554 0.194-1.158-0.202-2.155-0.66-2.993-1.373-0.844-0.711-1.414-1.597-1.711-2.656v0c-0.396-1.418-0.341-2.626 0.166-3.623 0.502-0.989 1.531-1.887 3.087-2.694 1.554-0.813 3.805-1.632 6.751-2.455v0l0.849-0.237-0.357-1.279c-0.44-1.574-1.082-2.629-1.926-3.164-0.842-0.529-1.989-0.591-3.44-0.186v0c-2.166 0.606-4.134 1.882-5.904 3.829v0l-1.685-2.002c0.788-0.971 1.812-1.86 3.072-2.668 1.266-0.817 2.542-1.405 3.831-1.765zM110.105 23.239c1.548-0.433 2.674-1.312 3.376-2.638 0.703-1.326 0.823-2.814 0.361-4.466v0l-0.313-1.123-0.693 0.194c-2.277 0.636-3.981 1.214-5.112 1.734-1.136 0.528-1.894 1.09-2.274 1.688-0.375 0.589-0.44 1.322-0.195 2.2v0c0.282 1.008 0.882 1.738 1.801 2.19 0.921 0.458 1.937 0.532 3.049 0.221z" fill="#ffffff" data-fill-palette-color="primary"></path><path d="M172.54 22.381l10.55-13.748 3.152 0.844-13.219 16.704-2.956-0.791-3.067-21.064 3.337 0.894z" fill="#ffffff" data-fill-palette-color="primary"></path><path d="M237.122 54.114l-0.842 0.877-10.338-9.917c-1.498 1.717-2.244 3.388-2.239 5.012 0.005 1.624 0.753 3.152 2.245 4.582v0c1.643 1.576 3.691 2.46 6.146 2.653v0l-0.859 2.476c-1.18-0.018-2.414-0.322-3.702-0.912-1.297-0.589-2.448-1.366-3.452-2.329v0c-2.208-2.118-3.324-4.433-3.347-6.946-0.024-2.512 1.061-4.911 3.254-7.197v0c1.393-1.453 2.903-2.466 4.53-3.039 1.631-0.578 3.253-0.689 4.866-0.331 1.608 0.354 3.06 1.152 4.356 2.396v0c1.877 1.8 2.76 3.826 2.649 6.079-0.12 2.253-1.209 4.451-3.267 6.596zM236.016 43.295c-1.238-1.188-2.602-1.752-4.091-1.692-1.489 0.06-2.98 0.731-4.473 2.013v0l8.218 7.884c1.336-1.47 2.032-2.913 2.089-4.329 0.057-1.415-0.524-2.707-1.743-3.876z" fill="#ffffff" data-fill-palette-color="primary"></path><path d="M253.296 103.783l-1.101-3.071 26.704-9.573 1.101 3.071z" fill="#ffffff" data-fill-palette-color="primary"></path><path d="M9.869 139.952c0-1.796 1.456-3.251 3.251-3.251 1.796 0 3.251 1.456 3.252 3.251 0 1.796-1.456 3.251-3.252 3.251-1.796 0-3.251-1.456-3.251-3.251z" fill="#ffffff" data-fill-palette-color="primary"></path><path d="M265.193 139.952c0-1.796 1.456-3.251 3.251-3.251 1.796 0 3.251 1.456 3.251 3.251 0 1.796-1.456 3.251-3.251 3.251-1.796 0-3.251-1.456-3.251-3.251z" fill="#ffffff" data-fill-palette-color="primary"></path></g><g id="text-1"><path d="M12.737 189.343l-1.134-3.134 24.028-8.695-3.355-9.27 2.649-0.958 7.857 21.712-2.649 0.958-3.368-9.308z" fill="#ffffff" data-fill-palette-color="primary"></path><path d="M66.544 231.888l-1.722 2.247-1.689-1.309c-1.597-1.24-3.09-1.776-4.481-1.608-1.39 0.168-2.626 0.828-3.708 1.979v0l-7.657 8.154-2.378-2.234 13.414-14.283 2.319 2.178-2.337 2.489c2.356-0.91 4.801-0.361 7.334 1.648v0z" fill="#ffffff" data-fill-palette-color="primary"></path><path d="M112.091 254.34c2.407 0.673 4.024 1.788 4.851 3.344 0.836 1.552 0.902 3.584 0.201 6.095v0l-3.325 11.895-3.064-0.857 0.9-3.22c-0.799 0.976-1.787 1.626-2.964 1.949-1.179 0.33-2.429 0.31-3.75-0.059v0c-1.21-0.338-2.256-0.897-3.139-1.678-0.885-0.773-1.501-1.682-1.847-2.725-0.353-1.045-0.381-2.098-0.085-3.159v0c0.396-1.418 1.07-2.422 2.02-3.012 0.942-0.585 2.287-0.819 4.036-0.702 1.75 0.111 4.099 0.578 7.046 1.401v0l0.849 0.238 0.357-1.279c0.44-1.574 0.438-2.809-0.006-3.704-0.446-0.889-1.394-1.536-2.844-1.942v0c-2.166-0.606-4.511-0.535-7.034 0.211v0l-0.403-2.585c1.177-0.421 2.514-0.651 4.011-0.688 1.506-0.042 2.902 0.117 4.19 0.477zM106.062 271.128c1.548 0.433 2.966 0.265 4.255-0.504 1.288-0.769 2.163-1.98 2.625-3.632v0l0.313-1.123-0.692-0.193c-2.277-0.636-4.034-1.026-5.271-1.168-1.245-0.138-2.185-0.05-2.819 0.264-0.626 0.309-1.062 0.902-1.308 1.78v0c-0.282 1.008-0.147 1.944 0.404 2.806 0.55 0.869 1.381 1.459 2.493 1.77z" fill="#ffffff" data-fill-palette-color="primary"></path><path d="M175.774 269.602l2.271-17.179 3.151-0.844-3.106 21.074-2.956 0.791-13.179-16.714 3.337-0.894z" fill="#ffffff" data-fill-palette-color="primary"></path><path d="M236.141 224.768l0.842 0.878-10.338 9.917c1.654 1.568 3.292 2.383 4.915 2.445 1.623 0.062 3.18-0.622 4.671-2.052v0c1.643-1.576 2.611-3.586 2.906-6.031v0l2.438 0.961c-0.067 1.179-0.422 2.399-1.065 3.661-0.643 1.272-1.466 2.389-2.47 3.352v0c-2.208 2.118-4.568 3.137-7.079 3.056-2.511-0.081-4.863-1.264-7.056-3.55v0c-1.393-1.453-2.343-3.003-2.849-4.652-0.51-1.654-0.553-3.279-0.128-4.876 0.42-1.592 1.278-3.009 2.575-4.253v0c1.877-1.8 3.938-2.598 6.184-2.394 2.246 0.214 4.397 1.393 6.454 3.538zM225.286 225.424c-1.238 1.188-1.858 2.527-1.861 4.017-0.002 1.49 0.606 3.008 1.826 4.552v0l8.218-7.883c-1.414-1.396-2.826-2.151-4.238-2.266-1.412-0.115-2.727 0.411-3.945 1.58z" fill="#ffffff" data-fill-palette-color="primary"></path><path d="M271.742 182.734l-1.101 3.071-26.704-9.574 1.101-3.071z" fill="#ffffff" data-fill-palette-color="primary"></path></g></svg></g></svg></g></svg></g><g></g></svg></g><defs></defs></svg><rect width="280" height="280" fill="none" stroke="none" visibility="hidden"></rect></g></svg></g></svg>